<svg xmlns="http://www.w3.org/2000/svg" aria-hidden="true" style="width:0;height:0;position:absolute;overflow:hidden"><defs><symbol id="icon-close" viewBox="0 0 32 32"><path fill="none" stroke="#86e543" style="stroke:var(--color1,#86e543)" stroke-linejoin="round" stroke-linecap="round" stroke-width="1.143" d="M21.486 10.514 10.515 21.485m-.001-10.971 10.971 10.971M16 31.238c8.416 0 15.238-6.822 15.238-15.238S24.416.762 16 .762.762 7.584.762 16 7.584 31.238 16 31.238z"/></symbol><symbol id="icon-instagram" viewBox="0 0 32 32"><path fill="none" d="M16 0c8.837 0 16 7.163 16 16s-7.163 16-16 16S0 24.837 0 16 7.163 0 16 0z"/><path fill="currentColor" d="M24 9a1 1 0 1 1-2 0 1 1 0 0 1 2 0zm-8 14a7 7 0 1 1 0-14 7 7 0 0 1 0 14zm.001-2.333a4.667 4.667 0 1 0 0-9.334 4.667 4.667 0 0 0 0 9.334z"/></symbol><symbol id="icon-youtube" viewBox="0 0 32 32"><path fill="none" d="M16 0c8.837 0 16 7.163 16 16s-7.163 16-16 16S0 24.837 0 16 7.163 0 16 0z"/><path fill="currentColor" d="M22.251 10.986c.688.176 1.231.694 1.415 1.351.334 1.192.334 3.679.334 3.679s0 2.487-.334 3.679c-.184.658-.726 1.154-1.415 1.33-1.248.319-6.251.319-6.251.319s-5.003 0-6.251-.319c-.688-.176-1.231-.672-1.415-1.33C8 18.503 8 16.016 8 16.016s0-2.487.334-3.679a1.958 1.958 0 0 1 1.415-1.351c1.248-.319 6.251-.319 6.251-.319s5.003 0 6.251.319zm-7.887 2.772v4.516l4.182-2.258-4.182-2.258z"/></symbol><symbol id="icon-facebook" viewBox="0 0 33 32"><path fill="none" d="M17.149 0c8.837 0 16 7.163 16 16s-7.163 16-16 16-16-7.163-16-16 7.163-16 16-16z"/><path fill="currentColor" d="M21.149 13.181h-2.952V11.52c0-.624.481-.769.821-.769h2.083V8.01l-2.868-.009c-3.185 0-3.909 2.045-3.909 3.353v1.827h-1.841v2.827h1.84v7.993h3.875v-7.993h2.613l.339-2.827z"/></symbol></defs></svg>