<svg xmlns="http://www.w3.org/2000/svg" aria-hidden="true" style="position:absolute;width:0;height:0;overflow:hidden">
  <defs>
    <symbol id="icon-close" viewBox="0 0 32 32">
      <path stroke-linecap="round" stroke-linejoin="round" stroke-width="1.2" d="m20.5 11.5-9 9m0-9 9 9M16 28.5c6.904 0 12.5-5.596 12.5-12.5S22.904 3.5 16 3.5 3.5 9.096 3.5 16 9.096 28.5 16 28.5z"/>
    </symbol>
    <symbol id="icon-facebook" viewBox="0 0 32 32">
      <path fill="#fff" d="M16 0c6.627 0 12 5.373 12 12s-5.373 12-12 12S4 18.627 4 12 9.373 0 16 0z" style="fill:var(--color1, #fff)"/>
      <path fill="#001414" d="M19 9.886h-2.214V8.641c0-.468.361-.577.616-.577h1.562V6.008l-2.151-.007c-2.388 0-2.932 1.534-2.932 2.515v1.371H12.5v2.119h1.381v5.995h2.905v-5.995h1.96l.253-2.119z" style="fill:var(--color2, #001414)"/>
    </symbol>
    <symbol id="icon-instagram" viewBox="0 0 32 32">
      <path fill="#fff" d="M16 0c8.837 0 16 7.163 16 16s-7.163 16-16 16S0 24.837 0 16 7.163 0 16 0z" style="fill:var(--color1, #fff)"/>
      <path fill="#001414" d="M24 9a1 1 0 1 1-2 0 1 1 0 0 1 2 0zM16 23a7 7 0 1 1 0-14 7 7 0 0 1 0 14zm.001-2.333a4.667 4.667 0 1 0 0-9.334 4.667 4.667 0 0 0 0 9.334z" style="fill:var(--color2, #001414)"/>
    </symbol>
    <symbol id="icon-youtube" viewBox="0 0 32 32">
      <path fill="#fff" d="M16 0c8.837 0 16 7.163 16 16s-7.163 16-16 16S0 24.837 0 16 7.163 0 16 0z" style="fill:var(--color1, #fff)"/>
      <path fill="#001414" d="M22.251 10.986c.688.176 1.231.694 1.415 1.351.334 1.192.334 3.679.334 3.679s0 2.487-.334 3.679c-.184.658-.726 1.154-1.415 1.33-1.248.319-6.251.319-6.251.319s-5.003 0-6.251-.319c-.688-.176-1.231-.672-1.415-1.33C8 18.503 8 16.016 8 16.016s0-2.487.334-3.679a1.958 1.958 0 0 1 1.415-1.351c1.248-.319 6.251-.319 6.251-.319s5.003 0 6.251.319zm-7.887 2.772v4.516l4.182-2.258-4.182-2.258z" style="fill:var(--color2, #001414)"/>
    </symbol>
    <symbol id="icon-close-icon-1" viewBox="0 0 32 32">
<path fill="none" stroke="#86e543" style="stroke: var(--color1, #86e543)" stroke-linejoin="round" stroke-linecap="round" stroke-miterlimit="4" stroke-width="1.1429" d="M21.486 10.514l-10.971 10.971M10.514 10.514l10.971 10.971M16 31.238c8.416 0 15.238-6.822 15.238-15.238s-6.822-15.238-15.238-15.238-15.238 6.822-15.238 15.238 6.822 15.238 15.238 15.238z"></path>
</symbol>
  </defs>
</svg>
